<?xml version="1.0" encoding="UTF-8"?>
<svg id="Layer_1" data-name="Layer 1" xmlns="http://www.w3.org/2000/svg" viewBox="0 0 441.12 187.5">
  <defs>
    <style>
      .cls-1 {
        fill: #fff;
        stroke-width: 0px;
      }
    </style>
  </defs>
  <g>
    <path class="cls-1" d="M47.72,72.01s-2.47-21.23-22.61-29.31c2.22,3.08,4.56,7.09,6.26,12.06,5.38,15.71.58,29.9-1.49,35.12-.25,1.73-1.74,13.37,6.66,22.99,9.74,11.17,24.09,9.64,25.29,9.49-.02,1.18-.04,2.36-.07,3.54,1.33.32,3.06.6,5.09.62,2.17.02,4.01-.28,5.41-.6v-3.49s30.46,1.2,32.36-26.61c-.89-3.74-1.61-7.87-1.99-12.35-1.46-17.03,2.57-31.23,6.28-40.52,0,0-19.01,7.65-22.37,28.76l6.9-4.66s-5.05,6.42.56,24.57c0,0,2.95,18.79-21.8,20.39l.48-58.66-2.63-11.56,11.41,9.63-14.34-32.73-14.19,32.76,11.14-9.5-2.11,11.75-.04,58.25s-27.55-.8-20.46-25.73c0,0,3.67-6.73-.18-19.39l6.45,5.21Z"/>
    <path class="cls-1" d="M67.2,0c20.16,14.82,42.4,23.59,67.51,25.24,0,.58,0,1.11,0,1.64-.07,13.64.09,27.29-.28,40.93-.65,24.11-6.43,46.92-18.84,67.76-7.78,13.08-17.72,24.39-29.97,33.5-5.38,4-11.05,7.61-16.61,11.39-.96.65-1.83,1.01-3.1.26-12.59-7.43-24.25-15.99-33.91-27.09-11.53-13.25-19.87-28.26-25.12-45.01-3.39-10.82-5.71-21.86-6.27-33.18C.14,65.84.16,56.22.04,46.62c-.08-6.67,0-13.34-.03-20.02,0-.88.03-1.47,1.22-1.52,11.03-.45,21.65-2.93,31.98-6.7C45.25,13.98,56.38,7.88,66.72.31c.16-.11.32-.21.48-.31ZM123.51,35.46c-5.75-1.29-11.34-2.41-16.87-3.81-13.86-3.51-26.74-9.31-38.7-17.12-.74-.48-1.18-.38-1.84.04-2.09,1.34-4.19,2.69-6.35,3.91-14.77,8.31-30.49,13.93-47.28,16.44-1.07.16-1.4.53-1.38,1.6.06,3.34-.05,6.67.03,10.01.24,9.9.2,19.82.89,29.69.94,13.46,4.05,26.52,9.23,39.01,8.39,20.21,21.55,36.56,39.84,48.69.38.25.8.46,1.44.84v-21h9.65v21.06c.5-.27.77-.39,1.01-.55,18.39-12.48,31.78-29.06,40.25-49.55,6.71-16.23,9.64-33.28,9.98-50.78.17-8.96.07-17.93.1-26.89,0-.63,0-1.27,0-1.58Z"/>
    <path class="cls-1" d="M76.3,136.29c-2.98,5.29-14.87,5.29-17.86,0-1.35-2.4-.57-5.35,0-6.91h17.86c.57,1.57,1.35,4.52,0,6.91Z"/>
  </g>
  <path class="cls-1" d="M122.94,187.49h.01v-.03.03ZM115.17,187.5h.01v-.03s-.01.03-.01.03Z"/>
  <g>
    <path class="cls-1" d="M180.54,31.78l.43.41v45.22h22.99l.43.41v10.59l-.43.41h-34.7l-.43-.41v-56.22l.43-.41h11.28Z"/>
    <path class="cls-1" d="M249.67,31.83l.49.49v12.78l-.49.49h-24.09v7.38h17.21l.49.49v12.78l-.49.49h-17.21v8.36h27.04l.49.49v12.78l-.49.49h-40.32l-.49-.49v-56.05l.49-.49h37.37Z"/>
    <path class="cls-1" d="M308.44,51.17c-6.39-5.11-12.29-7.37-20.16-7.37-9.34,0-16.13,6.88-16.13,15.73s6.29,15.73,16.13,15.73c2.95,0,5.9-.49,7.87-1.48.04-2.81.09-5.61.13-8.42-2.86-.09-5.72-.18-8.58-.27l1.07,2.79c-1.24-.55-3.84-1.92-5.94-4.81-2.45-3.39-2.74-6.86-2.79-8.2,9.79.08,19.58.15,29.37.23.16.16.33.33.49.49v26.06c-5.41,5.41-13.77,7.87-21.63,7.87-17.7,0-31.47-13.28-31.47-29.99s13.77-29.99,31.47-29.99c7.87,0,14.26,1.67,20.65,5.41-.16,5.41-.33,10.82-.49,16.22Z"/>
    <path class="cls-1" d="M189.7,127.71c-6.39-5.11-12.29-7.37-20.16-7.37-9.34,0-16.13,6.88-16.13,15.73s6.29,15.73,16.13,15.73c2.95,0,5.9-.49,7.87-1.48.04-2.81.09-5.61.13-8.42-2.86-.09-5.72-.18-8.58-.27.36.93.72,1.86,1.07,2.79-1.24-.55-3.84-1.92-5.94-4.81-2.45-3.39-2.74-6.86-2.79-8.2,9.79.08,19.58.15,29.37.23.16.16.33.33.49.49v26.06c-5.41,5.41-13.77,7.87-21.63,7.87-17.7,0-31.47-13.28-31.47-29.99s13.77-29.99,31.47-29.99c7.87,0,14.26,1.67,20.65,5.41-.16,5.41-.33,10.82-.49,16.22Z"/>
    <path class="cls-1" d="M400.15,61.16c0,16.72-13.77,29.99-30.48,29.99s-30.48-13.28-30.48-29.99,13.77-29.99,30.48-29.99,30.48,13.27,30.48,29.99ZM354.42,61.16c0,8.85,6.39,15.73,15.24,15.73s15.24-6.88,15.24-15.73-6.39-15.73-15.24-15.73-15.24,6.88-15.24,15.73Z"/>
    <path class="cls-1" d="M211.37,106.97l.49.49v42.77h24.09c.04,4.43.09,8.85.13,13.28h-37.99v-56.05l.49-.49h12.78Z"/>
    <path class="cls-1" d="M300.36,135.36c0,16.72-13.77,29.99-30.48,29.99s-30.48-13.28-30.48-29.99,13.77-29.99,30.48-29.99,30.48,13.27,30.48,29.99ZM254.63,135.36c0,8.85,6.39,15.73,15.24,15.73s15.24-6.88,15.24-15.73-6.39-15.73-15.24-15.73-15.24,6.88-15.24,15.73Z"/>
    <path class="cls-1" d="M326.41,106.85c12.1,0,21.63,6.59,21.63,18.68,0,6.88-2.95,11.8-9.83,15.73l16.72,22.13-.49.49h-16.23l-.98-.49-14.26-19.17h-2.46v19.17l-.49.49h-12.78l-.49-.49v-56.05l.49-.49h19.17ZM320.51,131.43h6.39c2.95,0,5.9-1.48,5.9-5.41s-2.95-5.41-5.9-5.41h-6.39v10.82Z"/>
    <polygon class="cls-1" points="373.65 107.95 373.65 163.33 373.15 163.82 360.37 163.82 359.88 163.33 359.88 107.96 373.65 107.95"/>
    <polygon class="cls-1" points="332.97 32.46 332.97 87.79 332.48 88.28 319.69 88.28 319.21 87.79 319.21 32.47 319.24 32.47 332.95 32.46 332.97 32.46"/>
    <path class="cls-1" d="M441.12,135.05c0,16.72-13.77,29.99-30.48,29.99s-30.48-13.28-30.48-29.99,13.77-29.99,30.48-29.99,30.48,13.27,30.48,29.99ZM395.39,135.05c0,8.85,6.39,15.73,15.24,15.73s15.24-6.88,15.24-15.73-6.39-15.73-15.24-15.73-15.24,6.88-15.24,15.73Z"/>
  </g>
</svg>